<?xml version="1.0" encoding="UTF-8" standalone="no"?>
<!-- Created with Inkscape (http://www.inkscape.org/) -->

<svg
   width="1024"
   height="1024"
   viewBox="0 0 270.93334 270.93334"
   version="1.1"
   id="svg1"
   sodipodi:docname="applogo.svg"
   inkscape:version="1.3.2 (091e20e, 2023-11-25, custom)"
   xmlns:inkscape="http://www.inkscape.org/namespaces/inkscape"
   xmlns:sodipodi="http://sodipodi.sourceforge.net/DTD/sodipodi-0.dtd"
   xmlns="http://www.w3.org/2000/svg"
   xmlns:svg="http://www.w3.org/2000/svg">
  <sodipodi:namedview
     id="namedview1"
     pagecolor="#f2f2f2"
     bordercolor="#000000"
     borderopacity="0.25"
     inkscape:showpageshadow="2"
     inkscape:pageopacity="0.0"
     inkscape:pagecheckerboard="0"
     inkscape:deskcolor="#d1d1d1"
     inkscape:document-units="mm"
     inkscape:zoom="0.5"
     inkscape:cx="294"
     inkscape:cy="525"
     inkscape:window-width="1920"
     inkscape:window-height="1017"
     inkscape:window-x="-8"
     inkscape:window-y="-8"
     inkscape:window-maximized="1"
     inkscape:current-layer="layer1"
     showgrid="false">
    <inkscape:grid
       id="grid2"
       units="mm"
       originx="0"
       originy="0"
       spacingx="1"
       spacingy="1"
       empcolor="#0099e5"
       empopacity="0.30196078"
       color="#0099e5"
       opacity="0.14901961"
       empspacing="5"
       dotted="false"
       gridanglex="30"
       gridanglez="30"
       visible="false" />
  </sodipodi:namedview>
  <defs
     id="defs1" />
  <g
     inkscape:label="Layer 1"
     inkscape:groupmode="layer"
     id="layer1">
    <path
       d="m 96.38363,162.20147 c 0.0456,0.007 0.0913,0.0147 0.13694,0.0217 0.0457,-0.007 0.0913,-0.0143 0.13694,-0.0217 z"
       style="fill:#007cbe;fill-opacity:1;stroke:#011c27;stroke-width:0.529167;stroke-opacity:1"
       id="path215" />
    <path
       d="m 96.52057,127.70177 c -0.0457,0.007 -0.0913,0.0143 -0.13694,0.0217 h 0.27388 c -0.0456,-0.007 -0.0913,-0.0147 -0.13694,-0.0217 z"
       style="fill:#007cbe;fill-opacity:1;stroke:#011c27;stroke-width:0.529167;stroke-opacity:1"
       id="path214" />
    <path
       d="M 19.471009,57.723608 V 81.86012 c 6.510805,6.50153 15.335377,10.15394 24.536487,10.15545 0.159037,-0.006 0.318034,-0.0127 0.476974,-0.0207 V 57.723608 Z"
       style="fill:#e28413;fill-opacity:1;stroke:#011c27;stroke-width:0.529167;stroke-opacity:1"
       id="path213" />
    <path
       d="m 47.8269,91.77941 c -1.11003,0.12554 -2.22547,0.19745 -3.34243,0.21549 v 0.20671 h 3.21427 c 0.0421,-0.14091 0.0849,-0.28165 0.12816,-0.4222 z"
       style="fill:#007cbe;fill-opacity:1;stroke:#011c27;stroke-width:0.529167;stroke-opacity:1"
       id="path212" />
    <path
       d="m 44.48447,92.20161 v 17.37465 c 0.0183,-1.48311 0.10011,-2.96277 0.24443,-4.43487 0.14432,-1.47211 0.35128,-2.93674 0.62012,-4.38992 0.26883,-1.45317 0.59927,-2.89487 0.99115,-4.32118 0.39188,-1.42631 0.84511,-2.83718 1.35857,-4.22868 z"
       style="fill:#007cbe;fill-opacity:1;stroke:#011c27;stroke-width:0.529167;stroke-opacity:1"
       id="path211" />
    <path
       d="m 44.48447,109.57626 c -0.004,0.0384 -0.008,0.0768 -0.0114,0.11524 0.004,0.0384 0.008,0.0768 0.0114,0.11523 z"
       style="fill:#007cbe;fill-opacity:1;stroke:#011c27;stroke-width:0.529167;stroke-opacity:1"
       id="path210" />
    <path
       d="m 44.48447,109.80673 v 17.91674 h 3.3786 c -0.5429,-1.43173 -1.02145,-2.88459 -1.43505,-4.35426 -0.4136,-1.46966 -0.76225,-2.95615 -1.0449,-4.45502 -0.28264,-1.49888 -0.49952,-3.01008 -0.64957,-4.52944 -0.15005,-1.51936 -0.23328,-3.04689 -0.24908,-4.57802 z"
       style="fill:#007cbe;fill-opacity:1;stroke:#011c27;stroke-width:0.529167;stroke-opacity:1"
       id="path209" />
    <path
       d="m 78.9356,170.50174 v 0.62425 c 0.0121,-0.104 0.0238,-0.20804 0.0351,-0.31213 -0.0113,-0.10408 -0.0231,-0.20812 -0.0351,-0.31212 z"
       style="fill:#007cbe;fill-opacity:1;stroke:#011c27;stroke-width:0.529167;stroke-opacity:1"
       id="path208" />
    <path
       d="m 78.00025,162.20147 c 0.29066,1.36485 0.51417,2.74237 0.67025,4.1274 0.15607,1.38502 0.24471,2.77756 0.2651,4.17287 v -8.30027 z"
       style="fill:#007cbe;fill-opacity:1;stroke:#011c27;stroke-width:0.529167;stroke-opacity:1"
       id="path207" />
    <path
       d="m 44.48447,162.20147 v 50.5256 c 19.87694,-3.97455 34.25089,-21.33166 34.45113,-41.60108 v -0.62425 c -0.0408,-2.79061 -0.35404,-5.57057 -0.93535,-8.30027 z"
       style="fill:#011c27;fill-opacity:1;stroke:#011c27;stroke-width:0.529167;stroke-opacity:1"
       id="path206" />
    <path
       d="m 44.48447,127.72347 v 1.17719 c 0.71167,0.16346 1.41915,0.34513 2.12132,0.54467 0.70216,0.19953 1.39903,0.41693 2.09031,0.65216 -0.29676,-0.78451 -0.57452,-1.57609 -0.83303,-2.37402 z"
       style="fill:#15b097;fill-opacity:1;stroke:#011c27;stroke-width:0.529167;stroke-opacity:1"
       id="path205" />
    <path
       d="m 48.6961,130.09749 c 0.33375,0.7839 0.68575,1.55768 1.05575,2.32078 0.37,0.76311 0.75804,1.51545 1.16323,2.25671 0.4052,0.74127 0.82777,1.47168 1.26711,2.19005 0.43934,0.71838 0.89545,1.42481 1.36788,2.11925 0.47242,0.69444 0.96108,1.37692 1.46554,2.04639 0.50446,0.66946 1.02467,1.32594 1.56011,1.96939 0.53544,0.64344 1.08622,1.27342 1.65158,1.8898 0.56536,0.61639 1.1452,1.21937 1.73943,1.80765 0.59423,0.58827 1.20264,1.16222 1.82469,1.72134 0.62205,0.55912 1.25805,1.10301 1.90686,1.63194 0.64881,0.52893 1.31038,1.04279 1.9849,1.54047 0.67451,0.49769 1.36168,0.97947 2.06085,1.44488 0.69917,0.4654 1.41044,0.91409 2.1332,1.34617 0.72277,0.43207 1.45715,0.8477 2.20245,1.2454 0.74531,0.3977 1.5018,0.77769 2.2686,1.13998 0.7668,0.36229 1.54389,0.70667 2.33112,1.0325 -0.26764,-0.82665 -0.55948,-1.64213 -0.87436,-2.44533 -0.31488,-0.8032 -0.65288,-1.59431 -1.01338,-2.37247 -0.36049,-0.77815 -0.74323,-1.54345 -1.14773,-2.29495 -0.4045,-0.7515 -0.83056,-1.48902 -1.27744,-2.21227 -0.44688,-0.72324 -0.91485,-1.43205 -1.4025,-2.12545 -0.48765,-0.69339 -0.99507,-1.37153 -1.52187,-2.03346 -0.5268,-0.66194 -1.07278,-1.30744 -1.63711,-1.93632 -0.56433,-0.62888 -1.14694,-1.24081 -1.74718,-1.83503 -0.60024,-0.59422 -1.21807,-1.17113 -1.8526,-1.72909 -0.63454,-0.55796 -1.28564,-1.09738 -1.95285,-1.61748 -0.66722,-0.5201 -1.3507,-1.02056 -2.04897,-1.5012 -0.69828,-0.48063 -1.41169,-0.94122 -2.13941,-1.38079 -0.72771,-0.43957 -1.46965,-0.85832 -2.22518,-1.25522 -0.75554,-0.39691 -1.52458,-0.77184 -2.30632,-1.12448 -0.78175,-0.35264 -1.57595,-0.68284 -2.38229,-0.9896 -0.80633,-0.30677 -1.6248,-0.59027 -2.45411,-0.84956 z"
       style="fill:#f5e1da;fill-opacity:1;stroke:#011c27;stroke-width:0.529167;stroke-opacity:1"
       id="path204" />
    <path
       d="m 44.48447,128.90066 v 33.30081 h 33.51578 c -0.18062,-0.74483 -0.38129,-1.48466 -0.60151,-2.21847 -0.22022,-0.73381 -0.46,-1.46161 -0.71934,-2.18281 -12.5957,-5.21328 -22.64335,-15.16018 -27.9833,-27.7027 -1.38257,-0.47045 -2.78828,-0.86991 -4.21163,-1.19683 z"
       style="fill:#15b097;fill-opacity:1;stroke:#011c27;stroke-width:0.529167;stroke-opacity:1"
       id="path203" />
    <path
       d="m 47.86307,127.72347 c 0.25851,0.79793 0.53627,1.58951 0.83303,2.37402 13.26894,4.14878 23.70101,14.47625 27.9833,27.7027 0.7468,0.24507 1.49906,0.47319 2.2562,0.68419 v -30.76091 z"
       style="fill:#f5e1da;fill-opacity:1;stroke:#011c27;stroke-width:0.529167;stroke-opacity:1"
       id="path202" />
    <path
       d="m 76.6794,157.80019 c 0.51868,1.44241 0.9596,2.91162 1.32085,4.40128 h 0.93535 v -3.71709 c -0.75714,-0.211 -1.5094,-0.43912 -2.2562,-0.68419 z"
       style="fill:#15b097;fill-opacity:1;stroke:#011c27;stroke-width:0.529167;stroke-opacity:1"
       id="path201" />
    <path
       d="m 78.9356,127.72347 v 30.76091 c 0.95785,0.33901 1.92477,0.6497 2.89956,0.93173 0.97479,0.28203 1.9574,0.53516 2.94659,0.75964 0.98919,0.22449 1.98482,0.42016 2.98587,0.58653 1.00104,0.16637 2.00754,0.30368 3.0179,0.41134 -0.43014,-0.15151 -0.85163,-0.31877 -1.26349,-0.50126 -0.41185,-0.18248 -0.8142,-0.38035 -1.20664,-0.59221 -0.39244,-0.21186 -0.77481,-0.43783 -1.1467,-0.67748 -0.3719,-0.23964 -0.73344,-0.49277 -1.08366,-0.75861 -0.35022,-0.26584 -0.68907,-0.54465 -1.01647,-0.83509 -0.32741,-0.29044 -0.64325,-0.59243 -0.94672,-0.90589 -0.30346,-0.31345 -0.59442,-0.63819 -0.87281,-0.97306 -0.2784,-0.33488 -0.54414,-0.67986 -0.79634,-1.03457 -0.25219,-0.3547 -0.49086,-0.71898 -0.71571,-1.09192 -0.22486,-0.37294 -0.43562,-0.75453 -0.63201,-1.14411 -0.19639,-0.38959 -0.37839,-0.78702 -0.54518,-1.19166 -0.1668,-0.40464 -0.31869,-0.81645 -0.45476,-1.23455 -0.13606,-0.4181 -0.25649,-0.84282 -0.3607,-1.27279 -0.1042,-0.42998 -0.19234,-0.86561 -0.26355,-1.30587 -0.0712,-0.44025 -0.12517,-0.88482 -0.16226,-1.33377 -0.0371,-0.44894 -0.0571,-0.90201 -0.0589,-1.35805 7.2e-4,-0.59196 0.031,-1.17675 0.0899,-1.75338 0.0589,-0.57664 0.1467,-1.14531 0.26097,-1.70378 0.11427,-0.55846 0.2554,-1.10689 0.4222,-1.64434 0.1668,-0.53744 0.35918,-1.06359 0.57567,-1.57716 0.2165,-0.51358 0.45701,-1.01487 0.72037,-1.50172 0.26336,-0.48685 0.5494,-0.95918 0.8568,-1.41645 0.30739,-0.45727 0.63636,-0.89911 0.98495,-1.32395 0.34859,-0.42485 0.71685,-0.8331 1.10381,-1.22267 0.38696,-0.38956 0.79242,-0.76064 1.21491,-1.11207 0.4225,-0.35144 0.86204,-0.68277 1.31723,-0.99322 0.4552,-0.31046 0.92622,-0.6 1.41129,-0.86662 0.48507,-0.26662 0.98444,-0.51077 1.49655,-0.7307 0.5121,-0.21994 1.03671,-0.41561 1.57303,-0.58601 0.53631,-0.17041 1.08407,-0.31555 1.64176,-0.43357 0.55769,-0.11802 1.12547,-0.20904 1.7017,-0.27182 0.57623,-0.0628 1.16093,-0.0971 1.75287,-0.1018 z"
       style="fill:#f5e1da;fill-opacity:1;stroke:#011c27;stroke-width:0.529167;stroke-opacity:1"
       id="path200" />
    <path
       d="m 78.9356,158.48438 v 3.71709 h 17.44803 c -0.47752,-0.008 -0.9538,-0.0352 -1.42782,-0.0822 -0.47402,-0.047 -0.94575,-0.11352 -1.41387,-0.19947 -0.46812,-0.086 -0.93288,-0.19129 -1.39268,-0.31574 -0.4598,-0.12445 -0.91467,-0.26796 -1.36374,-0.43047 -4.04142,-0.43066 -8.0185,-1.33323 -11.84992,-2.68924 z"
       style="fill:#f5e1da;fill-opacity:1;stroke:#011c27;stroke-width:0.529167;stroke-opacity:1"
       id="path199" />
    <path
       d="m 96.38363,127.72347 c -9.47103,0.075 -17.11252,7.76794 -17.12402,17.23926 0.0293,7.29664 4.6437,13.78664 11.52591,16.21089 0.94989,0.14711 1.90357,0.268 2.85977,0.36226 0.95621,0.0943 1.91495,0.16189 2.87528,0.20308 0.96024,-0.0411 1.91915,-0.10891 2.87528,-0.20308 0.95612,-0.0942 1.90945,-0.21473 2.85925,-0.36174 0.43015,-0.15152 0.85163,-0.31877 1.26349,-0.50126 0.41187,-0.18249 0.8142,-0.38034 1.20665,-0.59221 0.39245,-0.21187 0.7748,-0.43783 1.1467,-0.67748 0.3719,-0.23965 0.73343,-0.49276 1.08365,-0.75861 0.35022,-0.26585 0.68906,-0.54464 1.01648,-0.83509 0.32741,-0.29045 0.64324,-0.59242 0.94671,-0.90589 0.30347,-0.31346 0.59493,-0.63818 0.87333,-0.97307 0.2784,-0.33488 0.54363,-0.68036 0.79582,-1.03508 0.25219,-0.35471 0.49086,-0.71897 0.71572,-1.09192 0.22485,-0.37295 0.43613,-0.75452 0.63252,-1.14411 0.39277,-0.7792 0.7273,-1.58998 0.99942,-2.42621 0.13606,-0.41812 0.2565,-0.84281 0.3607,-1.27279 0.1042,-0.42999 0.19235,-0.86508 0.26355,-1.30535 0.0712,-0.44027 0.1257,-0.88533 0.16278,-1.33429 0.0371,-0.44895 0.0566,-0.902 0.0584,-1.35805 -7.1e-4,-0.59195 -0.031,-1.17676 -0.0899,-1.75338 -0.0589,-0.57663 -0.1467,-1.14532 -0.26097,-1.70378 -0.11427,-0.55845 -0.2554,-1.1069 -0.42219,-1.64434 -0.1668,-0.53743 -0.35919,-1.0636 -0.57568,-1.57716 -0.21649,-0.51357 -0.45702,-1.01436 -0.72037,-1.5012 -0.26335,-0.48684 -0.54941,-0.95971 -0.85679,-1.41697 -0.30739,-0.45727 -0.63586,-0.89911 -0.98444,-1.32395 -0.34858,-0.42484 -0.71738,-0.83259 -1.10433,-1.22215 -0.38694,-0.38956 -0.79243,-0.76116 -1.21491,-1.11259 -0.42238,-0.35135 -0.86165,-0.68284 -1.31671,-0.99322 -1.2e-4,-9e-5 -4e-4,8e-5 -5.2e-4,0 -0.45519,-0.31046 -0.92571,-0.59999 -1.41077,-0.86662 -0.48505,-0.26662 -0.98445,-0.51024 -1.49655,-0.73019 -0.51209,-0.21994 -1.03673,-0.41611 -1.57303,-0.58652 -0.5363,-0.17042 -1.08408,-0.31502 -1.64176,-0.43305 -0.55767,-0.11803 -1.12549,-0.20954 -1.7017,-0.27234 -0.57622,-0.0628 -1.16094,-0.0971 -1.75287,-0.1018 z"
       style="fill:#15b097;fill-opacity:1;stroke:#011c27;stroke-width:0.529167;stroke-opacity:1"
       id="path198" />
    <path
       d="m 90.78552,161.17362 c 1.7963,0.65004 3.68805,0.99737 5.59811,1.02785 h 0.27388 c 1.90985,-0.0304 3.80143,-0.37753 5.59759,-1.02733 -1.89961,0.29403 -3.81406,0.48259 -5.73453,0.56482 -1.92066,-0.0824 -3.83528,-0.27112 -5.73505,-0.56534 z"
       style="fill:#007cbe;fill-opacity:1;stroke:#011c27;stroke-width:0.529167;stroke-opacity:1"
       id="path197" />
    <path
       d="m 96.65751,127.72347 c 9.47082,0.0753 17.112,7.76814 17.1235,17.23926 -0.0291,7.29683 -4.64352,13.78709 -11.52591,16.21141 19.46147,-2.18685 36.04806,-15.11309 42.92296,-33.45067 z"
       style="fill:#f5e1da;fill-opacity:1;stroke:#011c27;stroke-width:0.529167;stroke-opacity:1"
       id="path196" />
    <path
       d="m 95.66119,57.723608 c -0.0256,0.0033 -0.0514,0.0065 -0.077,0.0098 -0.0255,0.0033 -0.051,0.0069 -0.0765,0.01033 0.0342,-0.0034 0.0681,-0.007 0.10232,-0.01033 0.0343,-0.0034 0.0686,-0.0065 0.10284,-0.0098 z"
       style="fill:#007cbe;fill-opacity:1;stroke:#011c27;stroke-width:0.529167;stroke-opacity:1"
       id="path195" />
    <path
       d="m 78.9356,57.723608 v 3.175 c 1.32723,-0.485832 2.67233,-0.916476 4.03128,-1.29191 0.003,-8.14e-4 0.006,-0.0018 0.009,-0.0026 1.35953,-0.375339 2.73321,-0.695054 4.11758,-0.958598 1.3856,-0.263778 2.78167,-0.471711 4.18527,-0.622184 1.4036,-0.150474 2.81449,-0.243713 4.2292,-0.27957 0.0512,-0.0068 0.10231,-0.01355 0.15348,-0.02015 z"
       style="fill:#007cbe;fill-opacity:1;stroke:#011c27;stroke-width:0.529167;stroke-opacity:1"
       id="path194" />
    <path
       d="M 95.50771,57.743762 C 89.84887,57.887188 84.25131,58.9528 78.9356,60.898608 v 1.53324 c 0.63035,-0.36615 1.27097,-0.711924 1.92081,-1.036629 0.64984,-0.324705 1.30883,-0.628376 1.97611,-0.911056 0.66727,-0.282679 1.34306,-0.544375 2.02571,-0.784448 0.68266,-0.240073 1.37211,-0.458371 2.06809,-0.655257 0.69598,-0.196886 1.39805,-0.371915 2.1053,-0.525033 0.70725,-0.153117 1.41983,-0.284489 2.1363,-0.393257 0.71648,-0.108769 1.43696,-0.19506 2.1606,-0.258899 0.72363,-0.06384 1.45044,-0.105179 2.17919,-0.123507 z"
       style="fill:#f5e1da;fill-opacity:1;stroke:#011c27;stroke-width:0.529167;stroke-opacity:1"
       id="path193" />
    <path
       d="m 96.38363,92.20161 c 0.0228,0.004 0.0454,0.007 0.0682,0.0109 0.0229,0.004 0.0458,0.007 0.0687,0.0109 0.0457,-0.007 0.0913,-0.0143 0.13694,-0.0217 z"
       style="fill:#007cbe;fill-opacity:1;stroke:#011c27;stroke-width:0.529167;stroke-opacity:1"
       id="path192" />
    <path
       d="m 95.71287,57.723608 c -0.0684,0.0066 -0.13679,0.0133 -0.20516,0.02015 -5.83001,0.146625 -11.52926,1.758888 -16.57211,4.688086 V 92.2016 H 96.38363 C 95.79169,92.1966 95.20699,92.1626 94.63076,92.0998 94.05453,92.037 93.48675,91.946 92.92906,91.82798 92.37137,91.70997 91.82361,91.56482 91.2873,91.39442 90.75098,91.22402 90.22637,91.02834 89.71427,90.80841 89.20216,90.58847 88.70279,90.34432 88.21772,90.0777 87.73265,89.81108 87.26163,89.52154 86.80643,89.21109 86.35124,88.90064 85.9117,88.5693 85.4892,88.21787 c -0.42249,-0.35144 -0.82795,-0.72251 -1.21491,-1.11208 -0.38696,-0.38956 -0.75522,-0.79782 -1.10381,-1.22266 -0.34859,-0.42485 -0.67756,-0.86668 -0.98495,-1.32395 -0.3074,-0.45727 -0.59344,-0.92961 -0.8568,-1.41645 -0.26336,-0.48685 -0.50387,-0.98815 -0.72037,-1.50172 -0.21649,-0.51357 -0.40887,-1.03972 -0.57567,-1.57717 -0.1668,-0.53744 -0.30793,-1.08587 -0.4222,-1.64434 -0.11427,-0.55847 -0.20205,-1.12714 -0.26097,-1.70377 -0.0589,-0.57664 -0.0892,-1.16143 -0.0899,-1.75338 7.3e-4,-0.591949 0.0315,-1.176762 0.0904,-1.753386 0.0589,-0.576453 0.14622,-1.144962 0.26045,-1.703255 3e-5,-1.65e-4 -3e-5,-3.52e-4 0,-5.17e-4 0.11429,-0.558453 0.25539,-1.106914 0.4222,-1.644344 0.16681,-0.53743 0.35917,-1.063608 0.57567,-1.577165 0.21651,-0.513557 0.45701,-1.014368 0.72037,-1.5012 0.26337,-0.486832 0.5494,-0.959711 0.8568,-1.416968 0.30739,-0.457256 0.63636,-0.89912 0.98495,-1.32395 0.34859,-0.42483 0.71685,-0.832596 1.10381,-1.222148 0.38696,-0.389551 0.79242,-0.760654 1.21491,-1.112076 0.42249,-0.351423 0.86204,-0.683296 1.31723,-0.993738 0.4552,-0.310443 0.92622,-0.599486 1.41129,-0.866097 0.48506,-0.266612 0.98445,-0.510776 1.49655,-0.730705 0.5121,-0.219929 1.03672,-0.415615 1.57303,-0.586011 0.5363,-0.170395 1.08408,-0.315554 1.64176,-0.433565 0.55768,-0.118011 1.12548,-0.209042 1.7017,-0.271818 0.57622,-0.06278 1.16094,-0.09711 1.75287,-0.101803 z"
       style="fill:#007cbe;fill-opacity:1;stroke:#011c27;stroke-width:0.529167;stroke-opacity:1"
       id="path191" />
    <path
       d="m 96.52057,57.701904 c -0.0457,0.0071 -0.0913,0.01429 -0.13694,0.0217 h 0.49661 c -0.11981,-0.0085 -0.23971,-0.01572 -0.35967,-0.0217 z"
       style="fill:#007cbe;fill-opacity:1;stroke:#011c27;stroke-width:0.529167;stroke-opacity:1"
       id="path190" />
    <path
       d="m 96.38363,57.723608 c -9.47083,0.07502 -17.11224,7.767629 -17.12402,17.238742 0.0115,9.47131 7.65299,17.16423 17.12402,17.23926 h 0.27388 c 0.59193,-0.005 1.17665,-0.039 1.75287,-0.1018 0.57621,-0.0628 1.14403,-0.15431 1.7017,-0.27234 0.55767,-0.11803 1.10546,-0.26264 1.64176,-0.43305 0.5363,-0.17041 1.06094,-0.36658 1.57303,-0.58653 0.5121,-0.21994 1.0115,-0.46356 1.49655,-0.73018 0.48506,-0.26663 0.95558,-0.55616 1.41077,-0.86662 1.1e-4,-7e-5 4e-4,8e-5 5.2e-4,0 0.91024,-0.62086 1.75782,-1.32678 2.53162,-2.10581 0.38695,-0.38957 0.75575,-0.79731 1.10433,-1.22215 0.34858,-0.42484 0.67705,-0.86668 0.98444,-1.32395 0.30738,-0.45727 0.59344,-0.93013 0.85679,-1.41697 0.26335,-0.48684 0.50388,-0.98764 0.72037,-1.5012 0.21649,-0.51356 0.40888,-1.03973 0.57568,-1.57716 0.16679,-0.53744 0.30792,-1.08589 0.42219,-1.64435 0.11427,-0.55845 0.20206,-1.12714 0.26097,-1.70377 0.0589,-0.57662 0.0892,-1.16144 0.0899,-1.75338 -6.2e-4,-0.586588 -0.0305,-1.16619 -0.0884,-1.737879 -0.0578,-0.571689 -0.14352,-1.135312 -0.2558,-1.689303 -0.11228,-0.55399 -0.25097,-1.098448 -0.41496,-1.631941 -0.16399,-0.533493 -0.35342,-1.056118 -0.56638,-1.566313 -0.21295,-0.510195 -0.44981,-1.008318 -0.709,-1.492415 -0.25918,-0.484097 -0.5407,-0.954017 -0.84336,-1.409217 -0.30265,-0.455199 -0.62605,-0.89528 -0.96945,-1.318782 -0.34339,-0.423502 -0.70641,-0.830559 -1.08778,-1.219564 -0.38138,-0.389005 -0.78124,-0.760369 -1.19786,-1.112077 -0.41663,-0.351708 -0.85003,-0.683677 -1.29915,-0.995288 -0.44912,-0.311611 -0.91381,-0.60255 -1.39268,-0.871265 -0.47887,-0.268714 -0.97207,-0.515438 -1.47795,-0.738456 -0.50587,-0.223017 -1.0248,-0.422341 -1.55494,-0.596863 -0.53014,-0.174521 -1.0715,-0.324292 -1.62316,-0.447517 -0.55166,-0.123226 -1.1137,-0.219742 -1.68413,-0.288872 -0.57043,-0.06913 -1.14935,-0.110756 -1.73581,-0.12299 z"
       style="fill:#bebebe;fill-opacity:1;stroke:#011c27;stroke-width:0.529167;stroke-opacity:1"
       id="path189" />
    <path
       d="m 96.52057,57.644027 c -0.26944,0.02443 -0.53868,0.05095 -0.8077,0.07958 h 0.67076 c 0.0456,-0.0074 0.0913,-0.01465 0.13694,-0.0217 0.11996,0.006 0.23986,0.01322 0.35967,0.0217 h 1.865 c -0.7409,-0.04238 -1.48263,-0.06892 -2.22467,-0.07958 z"
       style="fill:#007cbe;fill-opacity:1;stroke:#011c27;stroke-width:0.529167;stroke-opacity:1"
       id="path188" />
    <path
       d="m 96.52057,57.610437 c -0.28692,0.03415 -0.5734,0.07187 -0.85938,0.113171 h 0.0517 c 0.26902,-0.02863 0.53826,-0.05515 0.8077,-0.07958 0.74204,0.01066 1.48377,0.0372 2.22467,0.07958 h 0.36484 c -0.86146,-0.06993 -1.72523,-0.107679 -2.58951,-0.113171 z"
       style="fill:#007cbe;fill-opacity:1;stroke:#011c27;stroke-width:0.529167;stroke-opacity:1"
       id="path187" />
    <path
       d="m 98.74524,57.723608 c 0.30084,0.0081 0.60161,0.01875 0.90227,0.03204 -0.17906,-0.01207 -0.35821,-0.02275 -0.53743,-0.03204 z"
       style="fill:#007cbe;fill-opacity:1;stroke:#011c27;stroke-width:0.529167;stroke-opacity:1"
       id="path186" />
    <path
       d="m 99.64751,57.755648 c 1.11498,0.100978 2.21364,0.253919 3.29386,0.456303 1.08021,0.202384 2.14192,0.454168 3.18275,0.752925 1.04083,0.298757 2.06086,0.644465 3.05769,1.034562 0.99683,0.390098 1.97047,0.824808 2.91869,1.301213 0.94821,0.476405 1.87126,0.994681 2.76624,1.55236 0.89497,0.557679 1.7622,1.1546 2.59932,1.788521 0.83713,0.633922 1.6438,1.304567 2.41846,2.009697 0.77466,0.70513 1.5171,1.444579 2.22467,2.215885 0.70757,0.771307 1.38054,1.574638 2.01641,2.407088 0.63587,0.832451 1.23466,1.694228 1.79421,2.582789 0.55955,0.888559 1.07995,1.803859 1.55856,2.743499 0.47861,0.93964 0.91539,1.90355 1.30845,2.88923 0.39306,0.98569 0.742,1.99328 1.04489,3.01997 0.30289,1.0267 0.55981,2.07254 0.76792,3.13521 0.2081,1.06268 0.36775,2.14184 0.47645,3.23546 0.1087,1.09363 0.16637,2.20171 0.17105,3.32125 h 14.27148 C 138.50663,72.569179 120.45651,59.014814 99.64751,57.755648 Z"
       style="fill:#f5e1da;fill-opacity:1;stroke:#011c27;stroke-width:0.529167;stroke-opacity:1"
       id="path185" />
    <path
       d="m 96.88024,57.723608 c 9.38341,0.195736 16.89084,7.853291 16.90077,17.238742 -0.0115,9.47111 -7.65268,17.16395 -17.1235,17.23926 h 34.58962 c -0.0748,-17.912582 -13.75989,-32.830312 -31.59962,-34.445962 -0.30066,-0.01329 -0.60143,-0.02397 -0.90227,-0.03204 z"
       style="fill:#007cbe;fill-opacity:1;stroke:#011c27;stroke-width:0.529167;stroke-opacity:1"
       id="path184" />
    <path
       d="m 91.17464,126.37213 c 0.43153,0.14078 0.86769,0.26439 1.30793,0.37052 0.44025,0.10613 0.88482,0.19499 1.33171,0.26613 0.44688,0.0712 0.89628,0.12437 1.34772,0.1602 0.45143,0.0358 0.90466,0.0541 1.35857,0.0543 0.45387,-2e-4 0.90718,-0.0184 1.35857,-0.0543 0.4514,-0.0358 0.90089,-0.0896 1.34772,-0.16071 0.44684,-0.0712 0.89099,-0.1595 1.33119,-0.26562 0.4402,-0.10612 0.87644,-0.22976 1.30793,-0.37052 -0.88044,0.18638 -1.7677,0.33839 -2.65927,0.45579 -0.89157,0.11739 -1.78747,0.20017 -2.68614,0.24804 -0.89876,-0.0479 -1.795,-0.13065 -2.68666,-0.24804 -0.89166,-0.1174 -1.77875,-0.2694 -2.65927,-0.45579 z"
       style="fill:#007cbe;fill-opacity:1;stroke:#011c27;stroke-width:0.529167;stroke-opacity:1"
       id="path183" />
    <path
       d="m 131.24713,92.20161 c 0.002,0.0472 0.004,0.0944 0.006,0.14159 -0.009,1.06303 -0.066,2.11596 -0.16898,3.1564 -0.10301,1.04044 -0.25218,2.06862 -0.44545,3.08198 -0.19327,1.01336 -0.43037,2.01182 -0.71003,2.99362 -0.27966,0.9818 -0.60159,1.94657 -0.96377,2.89233 -0.36218,0.94575 -0.76479,1.87237 -1.20561,2.7776 -0.44082,0.90523 -0.91997,1.78923 -1.43557,2.64945 -0.5156,0.86022 -1.06766,1.69662 -1.65416,2.50735 -0.5865,0.81072 -1.20734,1.59555 -1.86087,2.35231 -0.65353,0.75675 -1.33952,1.48555 -2.05621,2.18384 -0.71669,0.6983 -1.46419,1.36608 -2.24017,2.00143 -0.77598,0.63535 -1.58034,1.23816 -2.41174,1.80609 -0.8314,0.56793 -1.69003,1.1013 -2.57297,1.59732 -0.88294,0.49602 -1.79066,0.95496 -2.72128,1.37459 -0.93062,0.41964 -1.8838,0.79967 -2.85822,1.13843 -0.97442,0.33877 -1.96997,0.63595 -2.98432,0.88936 -1.01435,0.2534 -2.04759,0.46326 -3.098,0.62683 -1.72595,0.56305 -3.52994,0.85029 -5.34541,0.85111 -1.81565,-7.7e-4 -3.61981,-0.288 -5.34593,-0.85111 -1.0753,-0.14885 -2.14142,-0.34795 -3.19463,-0.59583 -1.05322,-0.24787 -2.09376,-0.54471 -3.11816,-0.88935 -1.0244,-0.34464 -2.03265,-0.73702 -3.02152,-1.17615 -0.98887,-0.43914 -1.95813,-0.92487 -2.90473,-1.45625 v 5.46892 h 17.44803 c 0.0456,-0.007 0.0913,-0.0147 0.13694,-0.0217 0.0457,0.007 0.0913,0.0143 0.13694,0.0217 h 48.52055 c 2.18871,-5.76251 3.33636,-11.86803 3.38946,-18.03197 -0.007,-5.96155 -1.03845,-11.87757 -3.04891,-17.48989 z"
       style="fill:#f5e1da;fill-opacity:1;stroke:#011c27;stroke-width:0.529167;stroke-opacity:1"
       id="path181" />
    <path
       id="path180"
       style="fill:#007cbe;fill-opacity:1;stroke:#011c27;stroke-width:0.529167;stroke-opacity:1"
       d="m 78.9356,92.20161 v 30.05294 c 3.78641,2.12551 7.93786,3.52217 12.23904,4.11758 -7.10498,-2.31423 -11.91406,-8.93747 -11.91503,-16.40985 0,-0.32899 0.01128,-0.65533 0.02945,-0.97978 H 79.25444 V 92.59176 h 17.32607 v 0.11163 c 9.50487,0.0327 17.20034,7.7464 17.2005,17.25889 -9.7e-4,7.47238 -4.81005,14.09562 -11.91503,16.40985 16.80655,-2.61708 29.24527,-17.02042 29.38735,-34.02893 l -0.006,-0.14159 H 96.65751 c -0.0456,0.007 -0.0913,0.0147 -0.13694,0.0217 -0.0457,-0.007 -0.0913,-0.0143 -0.13694,-0.0217 z" />
    <path
       d="m 47.69874,92.20161 c -2.05386,5.56601 -3.14095,11.44224 -3.21427,17.37465 v 0.23047 c 0.0632,6.12452 1.20697,12.18982 3.3786,17.91674 H 78.9356 v -5.46892 c -0.66316,-0.38933 -1.31034,-0.79878 -1.94097,-1.22731 -0.63063,-0.42853 -1.24483,-0.87638 -1.84175,-1.34204 -0.59692,-0.46566 -1.17636,-0.94931 -1.73839,-1.45004 -0.56203,-0.50073 -1.1065,-1.01811 -1.63246,-1.55184 -0.52596,-0.53374 -1.03368,-1.0838 -1.52239,-1.64848 -0.48871,-0.56468 -0.95843,-1.14431 -1.4087,-1.73788 -0.45027,-0.59356 -0.88126,-1.20069 -1.29191,-1.82108 -0.41065,-0.62038 -0.80113,-1.25396 -1.17099,-1.89911 -0.36985,-0.64514 -0.71909,-1.30206 -1.04696,-1.9699 -0.32787,-0.66785 -0.6341,-1.34654 -0.91881,-2.03502 -0.28471,-0.68848 -0.5477,-1.38687 -0.78806,-2.09393 -0.24037,-0.70705 -0.45836,-1.42255 -0.6532,-2.14612 -0.19483,-0.72357 -0.36657,-1.45513 -0.51469,-2.19315 -0.14813,-0.73801 -0.27236,-1.48253 -0.37259,-2.23294 -0.10023,-0.7504 -0.17622,-1.50683 -0.22738,-2.26756 -0.0511,-0.76073 -0.0776,-1.52595 -0.0785,-2.29495 0.006,-0.0472 0.0123,-0.0944 0.0186,-0.14159 z"
       style="fill:#f5e1da;fill-opacity:1;stroke:#011c27;stroke-width:0.529167;stroke-opacity:1"
       id="path179" />
    <path
       d="m 61.80641,92.20161 c -0.006,0.0472 -0.0125,0.0944 -0.0186,0.14159 0.0145,12.30392 6.53735,23.68198 17.14779,29.91135 V 92.20161 Z"
       style="fill:#007cbe;fill-opacity:1;stroke:#011c27;stroke-width:0.529167;stroke-opacity:1"
       id="path178" />
    <path
       d="m 62.54125,86.619 c -0.55629,0.35164 -1.1218,0.68701 -1.69551,1.00563 -0.5737,0.31861 -1.15547,0.6203 -1.74511,0.90537 -0.58964,0.28506 -1.18701,0.5536 -1.7911,0.8046 -0.6041,0.251 -1.21487,0.48484 -1.83193,0.70125 -0.61706,0.2164 -1.2406,0.41505 -1.86914,0.59634 -0.62854,0.1813 -1.26213,0.34527 -1.90066,0.49093 -0.63853,0.14566 -1.28204,0.2729 -1.92908,0.38241 -0.64704,0.10951 -1.29776,0.20105 -1.95182,0.27388 -0.0433,0.14055 -0.086,0.28129 -0.12816,0.4222 h 14.10767 c 0.0234,-0.46942 0.0563,-0.93832 0.0987,-1.40612 0.0424,-0.4678 0.0943,-0.93431 0.15555,-1.39991 0.0613,-0.4656 0.13174,-0.93037 0.21187,-1.3932 0.0801,-0.46283 0.16981,-0.9239 0.26872,-1.38338 z"
       style="fill:#f5e1da;fill-opacity:1;stroke:#011c27;stroke-width:0.529167;stroke-opacity:1"
       id="path177" />
    <path
       d="m 78.2607,62.949646 c -0.52343,0.330474 -1.03659,0.673998 -1.53892,1.029911 -0.50234,0.355914 -0.9938,0.724029 -1.47433,1.104326 -0.48053,0.380296 -0.95015,0.772533 -1.40818,1.176155 -0.45803,0.403622 -0.90463,0.818995 -1.33946,1.244886 -0.43482,0.42589 -0.85774,0.862379 -1.26865,1.30948 -0.41092,0.447101 -0.80949,0.904755 -1.1958,1.37201 -0.3863,0.467254 -0.76038,0.944053 -1.12137,1.430403 -0.361,0.486351 -0.70889,0.982342 -1.04387,1.486731 -0.33498,0.50439 -0.65705,1.017554 -0.96531,1.538922 -0.30827,0.52137 -0.60283,1.05072 -0.88367,1.58802 -0.28084,0.53729 -0.54775,1.08236 -0.80047,1.63453 -0.25272,0.55216 -0.4913,1.11144 -0.7152,1.67741 -0.2239,0.56597 -0.4335,1.13849 -0.62787,1.71721 -0.19437,0.57872 -0.37381,1.16348 -0.53795,1.7539 -0.16415,0.59042 -0.31275,1.18643 -0.44597,1.78749 -0.13321,0.60105 -0.25085,1.20734 -0.35243,1.81797 0.52343,-0.33047 1.03659,-0.67399 1.53892,-1.02991 0.50234,-0.35591 0.9938,-0.72403 1.47433,-1.10432 0.48053,-0.3803 0.95015,-0.77254 1.40818,-1.17616 0.45803,-0.40362 0.90463,-0.81899 1.33946,-1.24488 0.43482,-0.42589 0.85774,-0.86238 1.26865,-1.30949 0.41092,-0.4471 0.80949,-0.90475 1.1958,-1.372 0.3863,-0.46726 0.76038,-0.94406 1.12137,-1.43041 0.361,-0.48635 0.70889,-0.98234 1.04387,-1.48673 0.33498,-0.50439 0.65705,-1.01755 0.96531,-1.53892 0.30827,-0.521375 0.60283,-1.050726 0.88367,-1.588021 0.28084,-0.537295 0.54775,-1.082364 0.80047,-1.634525 0.25272,-0.552162 0.4913,-1.111446 0.7152,-1.677417 0.2239,-0.565972 0.4335,-1.138485 0.62787,-1.717208 0.19437,-0.578724 0.37381,-1.16348 0.53795,-1.753898 0.16415,-0.590419 0.31275,-1.186432 0.44597,-1.787488 0.13321,-0.601056 0.25085,-1.207341 0.35243,-1.817977 z"
       style="fill:#e28413;fill-opacity:1;stroke:#011c27;stroke-width:0.529167;stroke-opacity:1"
       id="path176" />
    <path
       d="m 78.9356,62.431848 c -0.22707,0.169838 -0.45206,0.342451 -0.6749,0.517798 -1.62533,9.77019 -7.34451,18.381774 -15.71945,23.669354 -0.39563,1.83791 -0.64139,3.70492 -0.73484,5.58261 H 78.9356 Z"
       style="fill:#007cbe;fill-opacity:1;stroke:#011c27;stroke-width:0.529167;stroke-opacity:1"
       id="path175" />
    <path
       d="m 78.51392,61.026249 c -0.88893,0.330478 -1.7662,0.684206 -2.63085,1.060401 -0.86465,0.376194 -1.71646,0.7748 -2.5554,1.195275 -0.83894,0.420476 -1.66505,0.862697 -2.47685,1.326018 -0.8118,0.46332 -1.6094,0.947894 -2.39262,1.452624 -0.78322,0.50473 -1.55207,1.029878 -2.30529,1.574581 -0.75321,0.544703 -1.491,1.108646 -2.21278,1.691887 -0.72178,0.58324 -1.42725,1.185749 -2.11615,1.806091 -0.6889,0.620341 -1.3613,1.258605 -2.0159,1.914612 -0.65459,0.656006 -1.29162,1.329795 -1.91048,2.020032 -0.61885,0.69024 -1.21923,1.39725 -1.80092,2.12028 -0.58168,0.72303 -1.14467,1.46202 -1.68775,2.21641 -0.54308,0.75438 -1.06637,1.52407 -1.56941,2.30838 -0.50305,0.78431 -0.98589,1.58293 -1.44746,2.39572 -0.46157,0.8128 -0.90218,1.63959 -1.32085,2.47944 -0.41867,0.83984 -0.81526,1.69304 -1.18959,2.5585 -0.37434,0.86546 -0.72616,1.74327 -1.05472,2.63291 5.2325,-0.58269 10.26408,-2.34729 14.71435,-5.16041 1.62533,-9.77019 7.34451,-18.381766 15.71945,-23.669354 0.1023,-0.638648 0.18674,-1.280033 0.25322,-1.923397 z"
       style="fill:#f5e1da;fill-opacity:1;stroke:#011c27;stroke-width:0.529167;stroke-opacity:1"
       id="path174" />
    <path
       d="m 78.9356,60.898608 c -0.14074,0.04195 -0.2813,0.0845 -0.42168,0.127641 -0.0665,0.643364 -0.15092,1.284748 -0.25322,1.923397 0.22284,-0.175348 0.44783,-0.34796 0.6749,-0.517798 z"
       style="fill:#007cbe;fill-opacity:1;stroke:#011c27;stroke-width:0.529167;stroke-opacity:1"
       id="path173" />
    <path
       d="M 44.48447,57.723608 V 91.9949 c 1.11696,-0.018 2.2324,-0.09 3.34243,-0.21549 5.25702,-14.23421 16.46416,-25.465504 30.68702,-30.753161 0.1215,-1.09696 0.19066,-2.199095 0.20722,-3.302641 z"
       style="fill:#e28413;fill-opacity:1;stroke:#011c27;stroke-width:0.529167;stroke-opacity:1"
       id="path172" />
    <path
       d="m 78.72114,57.723608 c -0.0166,1.103547 -0.0857,2.20568 -0.20722,3.302641 0.14038,-0.04314 0.28094,-0.08569 0.42168,-0.127641 v -3.175 z"
       style="fill:#007cbe;fill-opacity:1;stroke:#011c27;stroke-width:0.529167;stroke-opacity:1"
       id="path171" />
    <path
       d="m 44.48447,57.667798 v 0.05581 h 34.23667 l 0.003,-0.05581 z"
       style="fill:#007cbe;fill-opacity:1;stroke:#011c27;stroke-width:0.529167;stroke-opacity:1"
       id="path170" />
    <path
       d="m 78.72372,57.667798 -0.003,0.05581 h 0.21446 v -0.05581 z"
       style="fill:#007cbe;fill-opacity:1;stroke:#011c27;stroke-width:0.529167;stroke-opacity:1"
       id="path169" />
    <path
       id="path168"
       style="fill:#007cbe;fill-opacity:1;stroke:#011c27;stroke-width:0.529167;stroke-opacity:1"
       d="M 44.007496,22.550562 A 34.732658,34.732658 0 0 0 9.2752488,57.283325 34.732658,34.732658 0 0 0 19.471009,81.86012 V 57.723608 H 44.48447 v -0.05581 h 34.23925 a 34.732658,34.732658 0 0 0 0.01654,-0.384473 34.732658,34.732658 0 0 0 -0.001,-0.04393 H 44.22715 v -0.09819 a 17.260763,17.260763 0 0 1 -0.219624,0.0217 17.260763,17.260763 0 0 1 -17.260445,-17.260445 17.260763,17.260763 0 0 1 17.260445,-17.260962 17.260763,17.260763 0 0 1 0.219624,0.0078 v -0.09353 a 34.732658,34.732658 0 0 0 -0.219624,-0.0052 z" />
    <circle
       style="fill:#001c27;fill-opacity:1;stroke:#001c27;stroke-width:0.2"
       id="path1"
       cx="88.302078"
       cy="108.61042"
       r="2.9104166" />
    <circle
       style="fill:#001c27;fill-opacity:1;stroke:#001c27;stroke-width:0.2"
       id="path1-0"
       cx="96.302078"
       cy="108.61042"
       r="2.9104166" />
    <circle
       style="fill:#001c27;fill-opacity:1;stroke:#001c27;stroke-width:0.2"
       id="path1-0-0"
       cx="104.30208"
       cy="108.61042"
       r="2.9104166" />
    <text
       xml:space="preserve"
       style="font-size:50.8px;font-family:Calibri;-inkscape-font-specification:Calibri;fill:#e28413;fill-opacity:1;stroke:#001c27;stroke-width:0.2"
       x="89.107384"
       y="200.22893"
       id="text1"><tspan
         sodipodi:role="line"
         id="tspan1"
         style="font-style:normal;font-variant:normal;font-weight:bold;font-stretch:normal;font-family:Calibri;-inkscape-font-specification:'Calibri Bold';fill:#001c27;fill-opacity:1;stroke-width:0.2"
         x="89.107384"
         y="200.22893">AL Chat</tspan></text>
    <circle
       id="path2"
       style="fill:#001c27;stroke:none;stroke-width:0.264583"
       cx="69.596985"
       cy="20.205576"
       r="0.30000001" />
    <circle
       id="path27"
       style="fill:#f5e1da;stroke:#007cbe;stroke-width:0.264583"
       cx="-99.48333"
       cy="172.50833"
       r="0.2663981" />
  </g>
</svg>
